<svg width="76" height="38" viewBox="0 0 76 38" fill="none" xmlns="http://www.w3.org/2000/svg">
<path d="M59.0286 22.6797L67.8231 27.7896C71.4204 29.8809 75.9184 27.2668 75.9184 23.087V12.8699C75.9184 8.6873 71.4204 6.07593 67.8231 8.16723L59.0286 13.2744C55.4259 15.3629 55.4259 20.5884 59.0286 22.6797Z" fill="#F2D2B6"/>
<path d="M18.4626 37.148C28.6585 37.148 36.9252 28.8324 36.9252 18.574C36.9252 8.31565 28.6585 0 18.4626 0C8.26667 0 0 8.31565 0 18.574C0 28.8324 8.26667 37.148 18.4626 37.148Z" fill="#F2D2B6"/>
<path d="M35.5102 37.1481C45.6544 37.1481 53.8775 28.8737 53.8775 18.6704C53.8775 8.46709 45.6544 0.192719 35.5102 0.192719C25.3659 0.192719 17.1428 8.46434 17.1428 18.6704C17.1428 28.8765 25.3659 37.1481 35.5102 37.1481Z" fill="#DC1623"/>
<path d="M36.9251 18.574C36.9251 25.734 32.8979 31.9473 26.9986 35.0457C21.1401 31.9611 17.1428 25.7835 17.1428 18.6703C17.1428 11.4829 21.2217 5.25303 27.1782 2.19864C32.9796 5.32733 36.9251 11.4884 36.9251 18.574Z" fill="#F2D2B6" fill-opacity="0.75"/>
</svg>
